<svg width="1366" height="140" viewBox="0 0 1366 140" fill="none" xmlns="http://www.w3.org/2000/svg">
<path fill-rule="evenodd" clip-rule="evenodd" d="M481.845 124.245L482.029 125.465V125.704L1376.76 127.828V56.8087H1365.25L1346.06 64.0582L1328.57 58.6424L1309.39 59.3759L1281.24 68.3225L1251.82 63.2053L1242.86 67.8961L1215.57 67.4697L1198.51 59.3674L1178.47 58.5145L1167.38 64.7746L1146.06 57.6616L1124.74 68.749L1117.06 63.2053H1108.96L1102.99 67.8961L1075.7 68.3225L1059.07 58.088H1048.83L1018.13 70.4547L979.715 58.1051L952.236 70.0624L929.387 68.7234L906.624 51.7427L885.157 52.0497L856.68 63.9217L853.874 60.1179L844.654 59.717L841.652 63.5209L834.027 61.3204L815.187 57.5081L808.97 50.0966L794.539 32.6553L780.706 31.4528L778.104 26.6426L757.252 31.2481L742.019 51.8962L733.601 55.5038L719.572 71.1455L710.753 54.3013L679.282 57.9089L663.888 67.5976L654.045 46.6851H648.433L646.429 49.0902L624.382 49.4911L586.003 59.5209L586.002 59.5255L575.871 52.3432L560.289 70.066L554.148 61.9466L551.684 54.1343L514.387 52.0703L509.185 59.9168L503.394 55.7121L480.426 52.855L465.859 60.13L455.01 52.6247L431.283 57.5458L420.989 66.3474L402.439 60.13L387.011 62.3219L352.41 71.6779L302.832 60.13L282.525 58.9445L262.056 68.5734L219.839 57.0511L192.547 57.6652L163.379 65.1108L133.69 62.1428L95.0549 70.5009L74.6882 63.2174L53.9975 62.5265L13.4434 66.3474L-11 62.2707V126.432L481.845 124.245Z" fill="#B3A584"/>
<path d="M1376.78 95.4609L1353.3 107.196L1292.64 107.239L1275.17 99.4524L1234.49 98.9577L1164.09 109.798L1111.67 111.64L1075.7 109.866L1017.31 104.22L998.086 99.1454L970.035 100.476L955.383 104.015L928.321 109.832L909.072 101.414L893.635 106.42L871.588 112.237L820.876 114.241L807.239 112.237H794.215L785.192 105.619L721.644 107.026L686.839 114.437L631.137 107.026L560.281 114.437H505.023L460.435 107.026L422.32 112.834L375.326 106.42L344.597 109.934L310.465 110.301L251.353 104.766L229.272 104.783L155.617 112.834L67.507 111.717L32.8036 107.401L13.4434 111.179L-11 110.634V139.898L1376.75 140L1376.78 95.4609Z" fill="#91866C"/>
<path d="M900.858 104.225L848.935 107.227L799.827 105.828L787.588 107.38L794.215 112.242H807.238L820.876 114.246L871.587 112.242L887.221 108.233L900.858 104.225Z" fill="#706855"/>
<path d="M916.893 104.839L955.383 104.225L928.321 109.837L916.893 104.839Z" fill="#706855"/>
<path d="M612.237 109.003L472 109.003L505.022 114.436H560.28L612.237 109.003Z" fill="#706855"/>
<path d="M646.004 109.006L704.835 110.609L686.839 114.439L646.004 109.006Z" fill="#706855"/>
<path d="M445.978 109.226C440.733 110.027 382.49 107.4 382.49 107.4L422.319 112.833L445.978 109.226Z" fill="#706855"/>
<path d="M1007.13 101.526L1017.31 104.221L1076.49 109.91L1109.74 111.641L1164.09 109.799L1223.94 100.579L1128.64 103.445L1007.13 101.526Z" fill="#706855"/>
<path d="M1292.64 107.24L1281.24 102.157L1372.47 97.6113L1353.3 107.198L1292.64 107.24Z" fill="#706855"/>
<path d="M47.1484 109.168L144.785 104.758C144.785 104.758 210.934 106.771 209.195 106.967L155.617 112.818L67.5065 111.726L47.1484 109.168Z" fill="#706855"/>
<path d="M251.352 104.761L370.797 106.936L344.596 109.929L310.464 110.296L251.352 104.761Z" fill="#706855"/>
<path d="M25.196 108.887L-10.4115 104.776L-11 110.636L13.4434 111.181L25.196 108.887Z" fill="#706855"/>
<path d="M935.319 87.3454C935.947 87.3454 936.561 87.1591 937.083 86.8101C937.605 86.4611 938.011 85.9651 938.251 85.3849C938.491 84.8046 938.553 84.1663 938.43 83.5506C938.307 82.9349 938.004 82.3696 937.56 81.9262C937.115 81.4829 936.549 81.1814 935.933 81.0599C935.317 80.9385 934.679 81.0025 934.099 81.244C933.52 81.4854 933.025 81.8934 932.677 82.4162C932.329 82.9391 932.145 83.5534 932.146 84.1812C932.146 84.5975 932.229 85.0096 932.388 85.3941C932.548 85.7785 932.781 86.1277 933.076 86.4216C933.371 86.7156 933.721 86.9485 934.106 87.107C934.491 87.2655 934.903 87.3465 935.319 87.3454V87.3454Z" fill="white"/>
<path d="M944.956 92.0142L940.88 91.5452L938.202 88.8757C938.079 88.6939 937.914 88.5446 937.721 88.4407C937.528 88.3367 937.312 88.2811 937.093 88.2787H933.537C933.372 88.2813 933.21 88.3161 933.059 88.381H932.999L929.05 89.5836L925.639 88.1593L925.4 85.8991C925.391 85.8191 925.352 85.7457 925.29 85.6947C925.227 85.6436 925.148 85.6191 925.067 85.6262L924.607 85.6774C924.567 85.6806 924.528 85.6918 924.492 85.7104C924.457 85.729 924.425 85.7546 924.4 85.7856C924.374 85.8167 924.355 85.8526 924.344 85.8911C924.333 85.9297 924.329 85.9701 924.334 86.01L924.556 88.074C924.342 88.1711 924.171 88.3444 924.078 88.5601C924.028 88.6782 924.001 88.8051 924 88.9335C923.999 89.0619 924.023 89.1892 924.072 89.3082C924.12 89.4271 924.191 89.5353 924.282 89.6265C924.372 89.7177 924.48 89.79 924.598 89.8394L924.743 89.8991L926.543 107.008C926.552 107.088 926.591 107.161 926.654 107.212C926.716 107.263 926.795 107.288 926.876 107.281L927.336 107.23C927.376 107.226 927.415 107.215 927.451 107.197C927.486 107.178 927.518 107.152 927.543 107.121C927.569 107.09 927.588 107.054 927.599 107.016C927.61 106.977 927.614 106.937 927.609 106.897L925.903 90.3682L928.692 91.5366C928.829 91.593 928.977 91.6177 929.124 91.6088C929.272 91.5999 929.416 91.5578 929.545 91.4855L932.206 90.6752V105.345C932.234 105.713 932.401 106.058 932.672 106.309C932.943 106.56 933.299 106.7 933.669 106.7C934.038 106.7 934.395 106.56 934.666 106.309C934.937 106.058 935.103 105.713 935.131 105.345V98.0355H935.618V99.5622C935.618 99.6475 935.618 99.7242 935.669 99.8095C935.685 100.157 935.797 100.494 935.993 100.782L939.097 105.166C939.336 105.471 939.686 105.669 940.071 105.716C940.455 105.763 940.843 105.656 941.148 105.417C941.454 105.179 941.652 104.828 941.699 104.444C941.746 104.059 941.639 103.671 941.4 103.366L938.526 99.656C938.526 99.656 938.526 99.5963 938.526 99.5622V91.8863L939.754 93.1145C939.837 93.1923 939.932 93.2557 940.035 93.3021V93.3021H940.121C940.209 93.3472 940.304 93.3788 940.402 93.3959L944.769 93.8906C945.026 93.9188 945.283 93.844 945.485 93.6824C945.686 93.5209 945.815 93.2859 945.843 93.0292C945.872 92.7724 945.797 92.515 945.635 92.3135C945.474 92.1119 945.239 91.9828 944.982 91.9545L944.956 92.0142Z" fill="white"/>
<path d="M887.503 89.55C888.131 89.55 888.744 89.3637 889.266 89.0147C889.788 88.6657 890.195 88.1697 890.435 87.5894C890.675 87.0092 890.737 86.3708 890.614 85.7552C890.491 85.1395 890.188 84.5742 889.743 84.1308C889.299 83.6875 888.732 83.386 888.116 83.2645C887.5 83.1431 886.862 83.2071 886.283 83.4486C885.703 83.69 885.208 84.098 884.861 84.6208C884.513 85.1437 884.328 85.758 884.33 86.3858C884.33 86.8021 884.412 87.2142 884.572 87.5987C884.731 87.9831 884.965 88.3323 885.26 88.6262C885.555 88.9202 885.904 89.1531 886.289 89.3116C886.674 89.4701 887.087 89.5511 887.503 89.55V89.55Z" fill="white"/>
<path d="M893.414 94.8654C893.397 94.7958 893.368 94.7295 893.329 94.6692C893.301 94.6088 893.267 94.5516 893.227 94.4986L890.574 91.0871C890.548 91.0592 890.519 91.0336 890.489 91.0104C890.397 90.868 890.271 90.7512 890.122 90.6707C889.972 90.5902 889.805 90.5486 889.636 90.5498H885.372C885.224 90.55 885.079 90.583 884.946 90.6465C884.814 90.7099 884.697 90.8022 884.604 90.9166C884.533 90.9666 884.467 91.0238 884.408 91.0871L881.747 94.4986C881.707 94.5516 881.672 94.6088 881.645 94.6692C881.554 94.8154 881.509 94.9857 881.516 95.1577C881.524 95.3297 881.584 95.4954 881.687 95.633L884.118 99.3003C884.179 99.3912 884.257 99.4693 884.348 99.5306V107.624C884.333 107.826 884.359 108.028 884.426 108.219C884.492 108.41 884.597 108.585 884.735 108.733C884.872 108.881 885.039 109 885.224 109.08C885.409 109.161 885.609 109.203 885.811 109.203C886.013 109.203 886.213 109.161 886.398 109.08C886.583 109 886.75 108.881 886.887 108.733C887.024 108.585 887.129 108.41 887.196 108.219C887.263 108.028 887.289 107.826 887.273 107.624V100.315H887.76V107.624C887.744 107.826 887.771 108.028 887.837 108.219C887.904 108.41 888.009 108.585 888.146 108.733C888.284 108.881 888.45 109 888.635 109.08C888.82 109.161 889.02 109.203 889.222 109.203C889.424 109.203 889.624 109.161 889.809 109.08C889.995 109 890.161 108.881 890.298 108.733C890.436 108.585 890.541 108.41 890.607 108.219C890.674 108.028 890.7 107.826 890.685 107.624V99.488C890.756 99.4342 890.819 99.3711 890.873 99.3003L893.303 95.633C893.373 95.5193 893.419 95.3926 893.438 95.2606C893.457 95.1286 893.449 94.9941 893.414 94.8654V94.8654ZM883.691 95.1554L884.331 94.3025V96.085L883.691 95.1554ZM890.668 96.0594V94.3963L891.265 95.1554L890.668 96.0594Z" fill="white"/>
<path d="M840.33 88.7008C840.958 88.7025 841.572 88.5179 842.095 88.1703C842.618 87.8227 843.026 87.3278 843.267 86.7482C843.509 86.1686 843.573 85.5304 843.451 84.9144C843.33 84.2984 843.029 83.7323 842.585 83.2878C842.142 82.8432 841.577 82.5402 840.961 82.4171C840.345 82.2939 839.707 82.3563 839.127 82.5962C838.546 82.836 838.05 83.2427 837.701 83.7646C837.352 84.2865 837.166 84.9003 837.166 85.5281C837.166 86.3681 837.499 87.1738 838.092 87.7686C838.685 88.3633 839.49 88.6986 840.33 88.7008V88.7008Z" fill="white"/>
<path d="M843.503 98.6694V92.9637L844.808 94.2686L845.405 98.2686C845.424 98.3951 845.468 98.5167 845.534 98.6264C845.6 98.736 845.687 98.8316 845.79 98.9076C845.893 98.9836 846.01 99.0386 846.134 99.0695C846.258 99.1003 846.387 99.1064 846.514 99.0873C846.64 99.0683 846.762 99.0245 846.872 98.9585C846.981 98.8925 847.077 98.8055 847.153 98.7025C847.229 98.5996 847.284 98.4827 847.315 98.3585C847.346 98.2342 847.352 98.1052 847.333 97.9786L846.71 93.8336C846.71 93.8336 846.71 93.7825 846.71 93.7569V93.6289C846.693 93.5549 846.668 93.4833 846.633 93.4157C846.565 93.2568 846.456 93.1186 846.318 93.0149L843.367 90.0639C843.295 89.9802 843.206 89.9126 843.106 89.8656C843.006 89.8185 842.897 89.7931 842.787 89.791H838.011C837.869 89.793 837.73 89.8337 837.61 89.9089C837.49 89.9841 837.392 90.0908 837.328 90.2175C837.287 90.2557 837.249 90.2987 837.218 90.3454L835.188 93.8592L831.495 95.9914C831.384 96.0551 831.286 96.14 831.208 96.2414C831.13 96.3428 831.073 96.4586 831.039 96.5822C831.006 96.7059 830.997 96.8348 831.014 96.9618C831.031 97.0887 831.072 97.2111 831.137 97.3219C831.268 97.5428 831.481 97.7038 831.729 97.7707C831.978 97.8376 832.242 97.8051 832.467 97.6801L836.092 95.582C836.219 95.5524 836.34 95.4971 836.445 95.4193C836.551 95.3416 836.64 95.2432 836.706 95.13L837.235 94.2174V98.6183L836.45 99.7526C836.325 99.942 836.246 100.158 836.22 100.384C836.22 100.384 836.22 100.478 836.22 100.52L835.367 105.825C835.344 106.015 835.359 106.209 835.41 106.393C835.462 106.578 835.549 106.751 835.668 106.901C835.786 107.052 835.933 107.178 836.1 107.272C836.267 107.367 836.451 107.427 836.642 107.45C836.832 107.473 837.025 107.458 837.21 107.406C837.395 107.355 837.567 107.267 837.718 107.149C837.869 107.03 837.995 106.883 838.089 106.716C838.183 106.549 838.244 106.365 838.267 106.175L838.855 101.492C838.855 101.492 838.915 101.441 838.932 101.407L840.22 99.5479H840.723V101.075C840.732 101.158 840.749 101.241 840.774 101.322C840.787 101.669 840.896 102.006 841.09 102.294L844.194 106.678C844.312 106.83 844.459 106.957 844.627 107.051C844.795 107.146 844.979 107.207 845.17 107.23C845.361 107.253 845.555 107.237 845.74 107.185C845.926 107.133 846.099 107.045 846.249 106.925V106.925C846.554 106.687 846.75 106.337 846.797 105.953C846.843 105.569 846.735 105.183 846.497 104.878L843.623 101.168C843.626 101.137 843.626 101.106 843.623 101.075L843.503 98.6694Z" fill="white"/>
<path d="M805.884 88.4079C805.256 88.4079 804.642 88.2216 804.12 87.8726C803.598 87.5236 803.192 87.0276 802.952 86.4474C802.712 85.8671 802.649 85.2288 802.773 84.6131C802.896 83.9974 803.199 83.4321 803.643 82.9887C804.088 82.5454 804.654 82.2439 805.27 82.1224C805.886 82.001 806.524 82.065 807.104 82.3065C807.683 82.5479 808.178 82.9559 808.526 83.4788C808.873 84.0016 809.058 84.6159 809.056 85.2437C809.054 86.0837 808.719 86.8885 808.124 87.4816C807.529 88.0748 806.724 88.4079 805.884 88.4079V88.4079Z" fill="white"/>
<path d="M796.237 93.1214L800.322 92.6609L803 89.9828C803.122 89.8033 803.286 89.6561 803.478 89.5536C803.669 89.4511 803.883 89.3965 804.1 89.3943H807.665C807.829 89.395 807.991 89.4268 808.143 89.4882H808.202L812.151 90.6822L815.563 89.2579L815.802 86.9978C815.81 86.9178 815.85 86.8443 815.912 86.7933C815.974 86.7423 816.054 86.7177 816.134 86.7249L816.595 86.776C816.675 86.7846 816.748 86.8243 816.799 86.8865C816.85 86.9487 816.875 87.0285 816.868 87.1086L816.646 89.1726C816.817 89.2478 816.963 89.3713 817.066 89.5281C817.168 89.6848 817.223 89.868 817.223 90.0553C817.223 90.2426 817.168 90.4258 817.066 90.5826C816.963 90.7394 816.817 90.8629 816.646 90.9381L816.501 90.9978L814.701 108.106C814.693 108.186 814.653 108.26 814.591 108.311C814.529 108.362 814.449 108.386 814.369 108.379L813.908 108.328C813.868 108.325 813.829 108.314 813.794 108.295C813.758 108.277 813.726 108.251 813.701 108.22C813.675 108.189 813.657 108.153 813.645 108.114C813.634 108.076 813.631 108.035 813.635 107.996L815.341 91.4668L812.552 92.6353C812.416 92.6963 812.268 92.7235 812.119 92.7146C811.971 92.7056 811.827 92.6609 811.699 92.5841L809.038 91.7824V106.443C809.054 106.645 809.027 106.847 808.961 107.038C808.894 107.229 808.789 107.404 808.652 107.552C808.514 107.7 808.348 107.819 808.163 107.899C807.978 107.98 807.778 108.022 807.576 108.022C807.374 108.022 807.174 107.98 806.989 107.899C806.803 107.819 806.637 107.7 806.5 107.552C806.362 107.404 806.257 107.229 806.19 107.038C806.124 106.847 806.098 106.645 806.113 106.443V99.1342H805.618V100.644C805.622 100.726 805.622 100.809 805.618 100.891C805.603 101.239 805.491 101.576 805.294 101.863L802.19 106.247C801.951 106.553 801.601 106.751 801.216 106.798C800.832 106.845 800.444 106.737 800.139 106.499C799.833 106.26 799.635 105.91 799.588 105.525C799.541 105.141 799.648 104.753 799.887 104.448L802.761 100.738C802.757 100.706 802.757 100.675 802.761 100.644V92.9679L801.542 94.196C801.461 94.2767 801.365 94.3405 801.26 94.3837V94.3837C801.232 94.3874 801.203 94.3874 801.175 94.3837C801.088 94.4326 800.992 94.4644 800.893 94.4775L796.527 94.9721C796.4 94.9867 796.271 94.9761 796.148 94.9409C796.025 94.9057 795.91 94.8466 795.81 94.767C795.709 94.6874 795.626 94.5889 795.564 94.477C795.502 94.3651 795.462 94.2421 795.448 94.115C795.433 93.9879 795.444 93.8591 795.479 93.7361C795.514 93.6131 795.573 93.4982 795.653 93.398C795.732 93.2979 795.831 93.2143 795.943 93.1522C796.055 93.0901 796.178 93.0507 796.305 93.0361L796.237 93.1214Z" fill="white"/>
<path d="M867.946 90.9294C868.574 90.9294 869.187 90.7433 869.709 90.3947C870.231 90.0461 870.637 89.5506 870.877 88.9708C871.117 88.3911 871.18 87.7532 871.058 87.1377C870.935 86.5223 870.633 85.957 870.19 85.5132C869.746 85.0695 869.181 84.7674 868.565 84.6449C867.95 84.5225 867.312 84.5854 866.732 84.8255C866.152 85.0656 865.657 85.4723 865.308 85.994C864.96 86.5158 864.773 87.1292 864.773 87.7567C864.776 88.5974 865.111 89.4031 865.705 89.9976C866.3 90.5921 867.105 90.9271 867.946 90.9294Z" fill="white"/>
<path d="M877.694 95.1038L873.353 94.865L871.843 94.1827L873.703 94.3959C873.836 94.407 873.97 94.3916 874.097 94.3506C874.225 94.3096 874.343 94.2439 874.445 94.1571L877.907 91.5132C878.087 91.3475 878.198 91.1207 878.219 90.8773C878.241 90.6338 878.17 90.3912 878.022 90.197C877.873 90.0028 877.658 89.871 877.417 89.8273C877.177 89.7836 876.929 89.8313 876.722 89.961L873.515 92.4088L869.6 91.9653C869.52 91.9401 869.437 91.9229 869.353 91.9141H866.607C866.129 91.9141 865.672 92.1037 865.334 92.4412C864.997 92.7787 864.807 93.2364 864.807 93.7136V101.662V102.839L863.835 108.059C863.773 108.25 863.751 108.452 863.771 108.653C863.79 108.853 863.85 109.047 863.948 109.223C864.046 109.399 864.178 109.552 864.338 109.675C864.498 109.797 864.681 109.885 864.876 109.934C865.071 109.983 865.274 109.991 865.472 109.958C865.671 109.924 865.86 109.851 866.029 109.741C866.198 109.632 866.342 109.489 866.453 109.321C866.564 109.154 866.64 108.965 866.675 108.767L867.724 103.496C867.758 103.276 867.758 103.051 867.724 102.831V101.662H868.935L870.445 103.274H870.513L871.084 107.897C871.15 108.266 871.354 108.596 871.655 108.819C871.957 109.042 872.332 109.141 872.704 109.097C873.076 109.052 873.417 108.866 873.656 108.578C873.896 108.29 874.016 107.921 873.993 107.547L873.097 102.242C873.028 101.832 872.828 101.454 872.526 101.168L871.118 99.6752V95.9652L872.517 96.5964C872.596 96.6127 872.677 96.6127 872.756 96.5964C872.882 96.6759 873.025 96.7228 873.174 96.7328L877.566 96.9716C877.824 96.9852 878.077 96.8958 878.269 96.723C878.461 96.5503 878.576 96.3084 878.59 96.0505C878.603 95.7927 878.514 95.54 878.341 95.348C878.168 95.1561 877.926 95.0406 877.668 95.0271L877.694 95.1038Z" fill="white"/>
<path d="M863.093 92.0596H861.865C861.417 92.0596 861.055 92.4223 861.055 92.8698V99.4369C861.055 99.8844 861.417 100.247 861.865 100.247H863.093C863.541 100.247 863.903 99.8844 863.903 99.4369V92.8698C863.903 92.4223 863.541 92.0596 863.093 92.0596Z" fill="white"/>
<path d="M529.943 94.5387C530.571 94.5404 531.186 94.3558 531.708 94.0082C532.231 93.6606 532.639 93.1657 532.881 92.5861C533.122 92.0065 533.186 91.3683 533.065 90.7523C532.943 90.1363 532.642 89.5702 532.198 89.1256C531.755 88.6811 531.19 88.3781 530.574 88.2549C529.958 88.1318 529.32 88.1942 528.74 88.4341C528.16 88.6739 527.664 89.0806 527.315 89.6025C526.966 90.1244 526.779 90.7382 526.779 91.366C526.779 92.206 527.112 93.0117 527.706 93.6065C528.299 94.2012 529.104 94.5365 529.943 94.5387Z" fill="white"/>
<path d="M535.863 99.7862C535.842 99.7179 535.813 99.6521 535.778 99.59C535.752 99.5312 535.718 99.4766 535.676 99.428L533.015 96.0165C533.015 96.0165 532.955 95.9738 532.929 95.9397C532.839 95.7962 532.713 95.6785 532.563 95.5978C532.414 95.5172 532.246 95.4763 532.076 95.4791H527.812C527.664 95.4793 527.517 95.5122 527.383 95.5756C527.249 95.639 527.13 95.7313 527.036 95.8459C526.967 95.8981 526.901 95.9551 526.84 96.0165L524.187 99.428C524.146 99.4785 524.108 99.5327 524.076 99.59C524.044 99.6523 524.018 99.7181 524 99.7862C523.966 99.9173 523.96 100.054 523.982 100.188C524.004 100.321 524.053 100.449 524.128 100.562L526.558 104.221C526.62 104.312 526.698 104.39 526.789 104.451V112.579C526.817 112.948 526.983 113.292 527.254 113.544C527.526 113.795 527.882 113.934 528.251 113.934C528.621 113.934 528.977 113.795 529.248 113.544C529.519 113.292 529.686 112.948 529.714 112.579V105.262H530.2V112.579C530.228 112.948 530.395 113.292 530.666 113.544C530.937 113.795 531.293 113.934 531.663 113.934C532.033 113.934 532.389 113.795 532.66 113.544C532.931 113.292 533.097 112.948 533.125 112.579V104.434C533.198 104.383 533.262 104.319 533.313 104.247L535.744 100.588C535.818 100.47 535.867 100.338 535.888 100.2C535.908 100.062 535.9 99.9208 535.863 99.7862V99.7862ZM526.14 100.076L526.78 99.2233V101.014L526.14 100.076ZM533.117 100.98V99.2744L533.714 100.033L533.117 100.98Z" fill="white"/>
<path d="M549.876 92.6677C550.503 92.6677 551.117 92.4816 551.638 92.133C552.16 91.7843 552.567 91.2888 552.807 90.7091C553.047 90.1294 553.11 89.4914 552.988 88.876C552.865 88.2606 552.563 87.6952 552.119 87.2515C551.676 86.8078 551.11 86.5056 550.495 86.3832C549.879 86.2608 549.241 86.3236 548.662 86.5638C548.082 86.8039 547.586 87.2106 547.238 87.7323C546.889 88.2541 546.703 88.8675 546.703 89.495C546.703 89.9116 546.785 90.3242 546.945 90.7091C547.104 91.094 547.338 91.4438 547.632 91.7384C547.927 92.033 548.277 92.2667 548.662 92.4261C549.047 92.5856 549.459 92.6677 549.876 92.6677Z" fill="white"/>
<path d="M559.572 96.8365L555.231 96.5977L553.721 95.9239L555.581 96.1372C555.713 96.149 555.846 96.1339 555.972 96.0929C556.098 96.0518 556.214 95.9857 556.314 95.8984L559.785 93.2544C559.965 93.0887 560.076 92.862 560.097 92.6185C560.118 92.375 560.048 92.1324 559.9 91.9382C559.751 91.744 559.536 91.6122 559.295 91.5685C559.055 91.5249 558.807 91.5725 558.6 91.7022L555.393 94.15L551.478 93.7065C551.398 93.6813 551.315 93.6642 551.231 93.6553H548.485C548.009 93.6553 547.552 93.8437 547.215 94.1794C546.878 94.515 546.687 94.9705 546.685 95.4463V103.404V104.572L545.721 109.8C545.675 109.986 545.665 110.179 545.694 110.369C545.722 110.558 545.787 110.741 545.886 110.905C545.984 111.069 546.114 111.213 546.268 111.327C546.422 111.441 546.597 111.523 546.783 111.57C546.969 111.616 547.162 111.626 547.352 111.598C547.541 111.569 547.724 111.504 547.888 111.406C548.052 111.307 548.196 111.177 548.31 111.023C548.424 110.869 548.506 110.694 548.553 110.508L549.602 105.237C549.646 105.018 549.646 104.792 549.602 104.572V103.404H550.821L552.331 105.016H552.399L552.971 109.638C553.036 110.007 553.241 110.337 553.542 110.56C553.843 110.783 554.218 110.883 554.59 110.838C554.962 110.793 555.303 110.608 555.543 110.32C555.782 110.031 555.903 109.662 555.879 109.288L555.026 104.052C554.957 103.641 554.757 103.264 554.455 102.977L553.039 101.485V97.7747L554.446 98.4058C554.525 98.4229 554.606 98.4229 554.685 98.4058C554.813 98.4815 554.955 98.5281 555.103 98.5423L559.495 98.7811C559.753 98.7946 560.006 98.7052 560.198 98.5325C560.39 98.3597 560.505 98.1178 560.519 97.86C560.532 97.6021 560.443 97.3494 560.27 97.1575C560.097 96.9655 559.855 96.8501 559.598 96.8365H559.572Z" fill="white"/>
<path d="M545.023 93.792H543.795C543.347 93.792 542.984 94.1547 542.984 94.6022V101.169C542.984 101.617 543.347 101.98 543.795 101.98H545.023C545.47 101.98 545.833 101.617 545.833 101.169V94.6022C545.833 94.1547 545.47 93.792 545.023 93.792Z" fill="white"/>
<path d="M429.125 92.5387C429.753 92.5404 430.368 92.3556 430.891 92.0076C431.414 91.6596 431.822 91.1642 432.063 90.5841C432.304 90.004 432.368 89.3654 432.246 88.7492C432.124 88.1329 431.821 87.5668 431.377 87.1226C430.933 86.6784 430.367 86.3761 429.75 86.2539C429.134 86.1318 428.496 86.1953 427.916 86.4365C427.335 86.6777 426.84 87.0857 426.492 87.6087C426.144 88.1318 425.959 88.7463 425.961 89.3746C425.963 90.2131 426.297 91.0166 426.89 91.6095C427.483 92.2024 428.287 92.5365 429.125 92.5387V92.5387Z" fill="white"/>
<path d="M438.226 99.9653L434.456 97.7905L432.315 94.0719C432.251 93.9561 432.16 93.8568 432.051 93.782C431.972 93.6988 431.876 93.6325 431.771 93.5871C431.665 93.5417 431.552 93.518 431.437 93.5176H427.454C427.253 93.5176 427.054 93.5584 426.869 93.6376C426.685 93.7167 426.518 93.8326 426.379 93.9781V93.9781L423.428 96.9376C423.286 97.0336 423.176 97.1704 423.113 97.3299C423.077 97.4008 423.048 97.4751 423.027 97.5517C423.027 97.5517 423.027 97.5517 423.027 97.5517V97.6796C423.027 97.6796 423.027 97.7308 423.027 97.7564L422.405 101.893C422.377 102.024 422.375 102.159 422.402 102.291C422.428 102.422 422.481 102.547 422.557 102.657C422.633 102.768 422.731 102.861 422.845 102.932C422.959 103.003 423.086 103.05 423.218 103.07C423.351 103.089 423.486 103.082 423.616 103.047C423.745 103.013 423.866 102.952 423.972 102.869C424.077 102.786 424.164 102.682 424.227 102.564C424.291 102.446 424.33 102.316 424.341 102.183L424.938 98.1913L426.038 97.0911V104.767C426.038 104.767 426.038 104.827 426.038 104.861L423.113 108.596C422.995 108.748 422.907 108.921 422.856 109.106C422.805 109.29 422.79 109.484 422.814 109.674C422.837 109.865 422.898 110.049 422.992 110.216C423.087 110.383 423.213 110.529 423.364 110.648C423.516 110.766 423.689 110.853 423.873 110.904C424.058 110.956 424.252 110.97 424.442 110.947C424.632 110.923 424.817 110.863 424.984 110.768C425.151 110.674 425.297 110.547 425.416 110.396L428.52 106.012C428.717 105.725 428.829 105.388 428.844 105.04C428.844 104.955 428.895 104.878 428.895 104.793V103.266H429.39L430.678 105.134C430.678 105.134 430.737 105.134 430.755 105.21L431.343 109.893C431.366 110.083 431.426 110.267 431.52 110.434C431.614 110.601 431.74 110.748 431.891 110.867C432.042 110.985 432.215 111.073 432.4 111.124C432.584 111.176 432.777 111.191 432.968 111.168C433.158 111.145 433.342 111.085 433.509 110.991C433.676 110.896 433.823 110.77 433.942 110.62C434.06 110.469 434.148 110.296 434.199 110.111C434.251 109.927 434.266 109.733 434.243 109.543L433.39 104.247C433.394 104.198 433.394 104.15 433.39 104.102C433.367 103.875 433.288 103.658 433.16 103.471L432.383 102.336V97.9355L432.904 98.848C432.982 98.9821 433.094 99.0937 433.228 99.1721C433.305 99.2868 433.407 99.3829 433.526 99.4536L437.339 101.654C437.563 101.781 437.828 101.815 438.077 101.748C438.326 101.681 438.539 101.518 438.669 101.296C438.73 101.18 438.767 101.053 438.778 100.922C438.788 100.792 438.772 100.66 438.731 100.536C438.689 100.412 438.623 100.297 438.537 100.199C438.45 100.101 438.344 100.022 438.226 99.9653Z" fill="white"/>
<path d="M672.348 94.488C672.976 94.488 673.589 94.3019 674.111 93.9533C674.633 93.6046 675.04 93.1091 675.28 92.5294C675.52 91.9497 675.583 91.3117 675.46 90.6963C675.338 90.0809 675.036 89.5155 674.592 89.0718C674.148 88.6281 673.583 88.326 672.967 88.2035C672.352 88.0811 671.714 88.144 671.134 88.3841C670.555 88.6242 670.059 89.0309 669.711 89.5526C669.362 90.0744 669.176 90.6878 669.176 91.3153C669.175 91.7322 669.256 92.1453 669.415 92.5307C669.574 92.9162 669.808 93.2664 670.103 93.5612C670.397 93.856 670.748 94.0897 671.133 94.2487C671.518 94.4078 671.931 94.4891 672.348 94.488V94.488Z" fill="white"/>
<path d="M682.07 98.6619L677.729 98.4231L676.228 97.7408L678.079 97.9541C678.212 97.9698 678.347 97.9574 678.475 97.9178C678.602 97.8781 678.72 97.812 678.821 97.7238L682.292 95.0713C682.472 94.9056 682.583 94.6788 682.604 94.4354C682.625 94.1919 682.555 93.9493 682.407 93.7551C682.258 93.5609 682.043 93.4291 681.802 93.3854C681.562 93.3418 681.314 93.3894 681.107 93.5191L677.9 95.9669L673.985 95.5234C673.9 95.5234 673.823 95.4722 673.738 95.4722H670.992C670.514 95.4722 670.057 95.6618 669.719 95.9993C669.382 96.3368 669.192 96.7945 669.192 97.2718V105.221V106.398L668.22 111.626C668.155 111.992 668.231 112.368 668.434 112.68C668.636 112.992 668.949 113.215 669.309 113.305C669.67 113.395 670.051 113.345 670.376 113.164C670.701 112.984 670.945 112.687 671.06 112.334L672.109 107.054C672.147 106.837 672.147 106.615 672.109 106.398V105.221H673.32L674.838 106.832C674.857 106.854 674.88 106.872 674.906 106.884L675.478 111.498C675.49 111.697 675.544 111.891 675.634 112.069C675.724 112.247 675.85 112.405 676.004 112.532C676.157 112.66 676.335 112.755 676.526 112.812C676.718 112.868 676.919 112.885 677.117 112.861C677.315 112.837 677.506 112.773 677.679 112.673C677.851 112.573 678.002 112.438 678.12 112.278C678.239 112.118 678.324 111.935 678.37 111.74C678.415 111.546 678.421 111.345 678.386 111.148L677.491 105.852C677.422 105.439 677.218 105.061 676.911 104.777L675.503 103.276V99.566L676.911 100.197C676.989 100.218 677.071 100.218 677.149 100.197C677.274 100.278 677.418 100.325 677.567 100.334L681.951 100.572C682.079 100.58 682.207 100.562 682.327 100.52C682.448 100.477 682.559 100.412 682.655 100.327C682.75 100.242 682.828 100.139 682.884 100.023C682.939 99.9082 682.972 99.7832 682.979 99.6555C682.986 99.5279 682.968 99.4 682.926 99.2792C682.884 99.1585 682.818 99.0472 682.733 98.9518C682.648 98.8564 682.545 98.7786 682.43 98.723C682.315 98.6675 682.19 98.6351 682.062 98.6278L682.07 98.6619Z" fill="white"/>
<path d="M667.495 95.6201H666.267C665.82 95.6201 665.457 95.9829 665.457 96.4303V102.997C665.457 103.445 665.82 103.808 666.267 103.808H667.495C667.943 103.808 668.306 103.445 668.306 102.997V96.4303C668.306 95.9829 667.943 95.6201 667.495 95.6201Z" fill="white"/>
<path d="M694.54 92.6052C693.912 92.6052 693.299 92.4191 692.777 92.0705C692.255 91.7218 691.849 91.2263 691.609 90.6466C691.369 90.0669 691.306 89.4289 691.428 88.8135C691.551 88.1981 691.853 87.6327 692.296 87.189C692.74 86.7453 693.305 86.4431 693.921 86.3207C694.536 86.1983 695.174 86.2611 695.754 86.5013C696.334 86.7414 696.829 87.1481 697.178 87.6698C697.526 88.1916 697.713 88.805 697.713 89.4325C697.714 89.8494 697.632 90.2625 697.473 90.6479C697.314 91.0334 697.081 91.3836 696.786 91.6784C696.491 91.9732 696.141 92.2069 695.755 92.3659C695.37 92.525 694.957 92.6063 694.54 92.6052V92.6052Z" fill="white"/>
<path d="M476.179 89.818C475.551 89.818 474.938 89.632 474.416 89.2833C473.894 88.9347 473.487 88.4392 473.247 87.8595C473.007 87.2797 472.944 86.6418 473.067 86.0264C473.189 85.4109 473.491 84.8456 473.935 84.4019C474.379 83.9582 474.944 83.656 475.56 83.5336C476.175 83.4112 476.813 83.474 477.393 83.7142C477.972 83.9543 478.468 84.3609 478.817 84.8827C479.165 85.4044 479.351 86.0178 479.351 86.6453C479.351 87.4868 479.017 88.2938 478.422 88.8888C477.827 89.4838 477.02 89.818 476.179 89.818Z" fill="white"/>
<path d="M466.533 94.5169L470.618 94.0564L473.296 91.3783C473.419 91.1976 473.585 91.0496 473.778 90.9471C473.971 90.8446 474.186 90.7906 474.405 90.7899H477.961C478.125 90.7946 478.286 90.8263 478.439 90.8837H478.499L482.448 92.0777L485.859 90.6534L486.098 88.3933C486.106 88.3133 486.146 88.2399 486.208 88.1888C486.27 88.1378 486.35 88.1132 486.43 88.1204L486.891 88.1715C486.971 88.1802 487.044 88.2198 487.095 88.282C487.146 88.3443 487.171 88.424 487.164 88.5042L486.942 90.5681C487.112 90.6473 487.255 90.7743 487.354 90.9336C487.453 91.0928 487.503 91.2774 487.498 91.4648C487.494 91.6521 487.435 91.8341 487.328 91.9884C487.222 92.1427 487.073 92.2626 486.899 92.3336L486.755 92.4018L484.955 109.51C484.944 109.589 484.904 109.66 484.842 109.709C484.78 109.759 484.701 109.782 484.622 109.775L484.162 109.732C484.082 109.724 484.008 109.684 483.957 109.622C483.906 109.559 483.882 109.48 483.889 109.4L485.595 92.8709L482.814 94.0393C482.679 94.0995 482.531 94.127 482.383 94.1196C482.235 94.1122 482.09 94.0701 481.961 93.9967L479.3 93.1864V107.847C479.316 108.049 479.289 108.251 479.223 108.442C479.156 108.633 479.051 108.808 478.914 108.956C478.776 109.104 478.61 109.223 478.425 109.303C478.24 109.384 478.04 109.426 477.838 109.426C477.636 109.426 477.436 109.384 477.251 109.303C477.065 109.223 476.899 109.104 476.762 108.956C476.624 108.808 476.519 108.633 476.453 108.442C476.386 108.251 476.36 108.049 476.375 107.847V100.538H475.889V102.065C475.877 102.148 475.86 102.231 475.838 102.312C475.822 102.66 475.71 102.997 475.514 103.284L472.409 107.668C472.171 107.974 471.82 108.172 471.436 108.219C471.051 108.266 470.663 108.158 470.358 107.92C470.053 107.681 469.855 107.331 469.807 106.946C469.76 106.562 469.868 106.174 470.106 105.869L472.981 102.159C472.981 102.159 472.981 102.099 472.981 102.065V94.389L471.752 95.6086C471.672 95.6893 471.576 95.7531 471.471 95.7962V95.7962H471.386C471.297 95.8386 471.202 95.8674 471.104 95.8815L466.738 96.3762C466.481 96.4056 466.223 96.3318 466.021 96.1711C465.818 96.0103 465.688 95.7758 465.659 95.519C465.629 95.2623 465.703 95.0044 465.864 94.8021C466.025 94.5998 466.259 94.4696 466.516 94.4402L466.533 94.5169Z" fill="white"/>
<path d="M691.377 102.545V96.7969L690.063 98.0762L689.458 102.076C689.419 102.332 689.281 102.562 689.073 102.715C688.865 102.869 688.605 102.933 688.349 102.895C688.094 102.857 687.864 102.718 687.71 102.51C687.557 102.302 687.492 102.042 687.53 101.786L688.153 97.6413C688.153 97.6413 688.153 97.5901 688.153 97.5645V97.4366C688.17 97.3626 688.195 97.2909 688.23 97.2233C688.298 97.0621 688.41 96.9232 688.554 96.8225L691.505 93.8716C691.577 93.7878 691.666 93.7202 691.766 93.6732C691.866 93.6261 691.974 93.6007 692.085 93.5986H696.861C697.003 93.6006 697.141 93.6413 697.262 93.7165C697.382 93.7917 697.479 93.8984 697.543 94.0251C697.587 94.0635 697.627 94.1064 697.662 94.153L699.684 97.6583L703.377 99.799C703.489 99.8618 703.587 99.9464 703.666 100.048C703.745 100.149 703.802 100.265 703.836 100.389C703.869 100.513 703.877 100.642 703.86 100.769C703.843 100.897 703.8 101.019 703.735 101.13C703.605 101.352 703.392 101.515 703.143 101.582C702.894 101.649 702.629 101.615 702.404 101.488L698.78 99.3896C698.652 99.3591 698.532 99.3034 698.427 99.2258C698.322 99.1481 698.233 99.0501 698.166 98.9376L697.645 98.0251V102.426L698.422 103.56C698.55 103.748 698.629 103.965 698.652 104.191C698.671 104.235 698.685 104.281 698.694 104.328L699.547 109.633C699.594 110.017 699.485 110.404 699.246 110.709C699.007 111.014 698.657 111.211 698.272 111.257C697.888 111.304 697.501 111.195 697.196 110.956C696.891 110.717 696.694 110.367 696.648 109.982L696.059 105.3C696.059 105.3 695.999 105.249 695.982 105.215L694.694 103.347H694.328V104.899C694.328 104.984 694.285 105.061 694.277 105.147C694.262 105.492 694.149 105.826 693.952 106.11L690.848 110.503C690.608 110.807 690.257 111.004 689.871 111.051C689.486 111.097 689.098 110.989 688.793 110.75V110.75C688.489 110.511 688.292 110.162 688.245 109.778C688.199 109.394 688.307 109.007 688.545 108.703L691.419 104.993C691.419 104.993 691.419 104.933 691.419 104.899L691.377 102.545Z" fill="white"/>
<path d="M1102.99 67.9525L1105.71 65.8203L1110.55 66.8864L1117.28 67.9525L1121.19 66.2467L1124.74 68.8054L1109.74 70.4941L1102.99 67.9525Z" fill="#90866C"/>
<path d="M1124.74 68.807L1129.65 66.2569L1136 67.5362L1143.31 66.9989L1150.26 67.5362L1163.3 63.4766L1167.38 64.8326L1150.8 71.0245L1141.68 70.4957L1133.2 71.4936L1124.74 68.807Z" fill="#90866C"/>
<path d="M1167.38 64.8343L1170.56 63.0518L1177.29 63.9473L1195.73 63.0518L1211.89 65.781L1215.57 67.5293L1195.64 67.4867L1176.73 68.9622L1167.38 64.8343Z" fill="#90866C"/>
<path d="M1242.86 67.952L1246.48 66.0586L1249.84 67.0053L1273.42 67.0223L1281.24 68.3784L1249.56 69.8027L1242.86 67.952Z" fill="#90866C"/>
<path d="M1281.24 68.384L1286.47 66.7294L1303.89 64.3329L1329.21 64.9469L1341.11 62.5845L1346.06 64.1196L1329.21 67.9405H1295.7L1281.24 68.384Z" fill="#90866C"/>
<path d="M1346.06 64.1157L1350.13 62.5805L1364.88 63.3481L1376.76 61.9067V65.4803H1372.37L1346.06 64.1157Z" fill="#90866C"/>
<path d="M1140.11 87.5732C1140.74 87.58 1141.36 87.3988 1141.88 87.0528C1142.41 86.7068 1142.82 86.2116 1143.07 85.6305C1143.31 85.0494 1143.38 84.4087 1143.25 83.7901C1143.13 83.1715 1142.83 82.603 1142.38 82.1573C1141.94 81.7115 1141.37 81.4087 1140.75 81.2873C1140.13 81.166 1139.49 81.2317 1138.91 81.4761C1138.33 81.7204 1137.84 82.1323 1137.49 82.6593C1137.14 83.1862 1136.96 83.8043 1136.97 84.4347C1136.98 85.2643 1137.31 86.0575 1137.9 86.6442C1138.48 87.2308 1139.28 87.5644 1140.11 87.5732V87.5732Z" fill="white"/>
<path d="M1146.02 92.8557C1146.01 92.786 1145.98 92.7194 1145.94 92.6596C1145.91 92.5991 1145.88 92.5419 1145.84 92.489L1143.18 89.0775C1143.15 89.0496 1143.12 89.0239 1143.09 89.0007C1143 88.8572 1142.88 88.7395 1142.73 88.6589C1142.58 88.5782 1142.41 88.5373 1142.24 88.5402H1137.98C1137.83 88.5403 1137.68 88.5732 1137.55 88.6367C1137.41 88.7001 1137.29 88.7923 1137.2 88.9069C1137.13 88.9541 1137.06 89.0116 1137 89.0775L1134.34 92.489L1134.24 92.6596C1134.21 92.7212 1134.18 92.7872 1134.16 92.8557C1134.13 92.9852 1134.12 93.1211 1134.14 93.2538C1134.16 93.3865 1134.21 93.5127 1134.29 93.6233L1136.72 97.2907C1136.78 97.3815 1136.86 97.4597 1136.95 97.5209V105.615C1136.94 105.816 1136.96 106.019 1137.03 106.209C1137.1 106.4 1137.2 106.575 1137.34 106.723C1137.48 106.872 1137.64 106.99 1137.83 107.071C1138.01 107.152 1138.21 107.193 1138.41 107.193C1138.62 107.193 1138.82 107.152 1139 107.071C1139.19 106.99 1139.35 106.872 1139.49 106.723C1139.63 106.575 1139.73 106.4 1139.8 106.209C1139.87 106.019 1139.89 105.816 1139.88 105.615V98.3056H1140.36V105.615C1140.35 105.816 1140.37 106.019 1140.44 106.209C1140.51 106.4 1140.61 106.575 1140.75 106.723C1140.89 106.872 1141.05 106.99 1141.24 107.071C1141.42 107.152 1141.62 107.193 1141.83 107.193C1142.03 107.193 1142.23 107.152 1142.41 107.071C1142.6 106.99 1142.77 106.872 1142.9 106.723C1143.04 106.575 1143.15 106.4 1143.21 106.209C1143.28 106.019 1143.3 105.816 1143.29 105.615V97.4783C1143.36 97.4245 1143.42 97.3614 1143.48 97.2907L1145.91 93.6233C1145.98 93.5104 1146.03 93.3837 1146.05 93.2514C1146.06 93.1191 1146.06 92.9842 1146.02 92.8557V92.8557ZM1136.3 93.1457L1136.94 92.2928V94.0753L1136.3 93.1457ZM1143.28 94.0412V92.3866L1143.88 93.1457L1143.28 94.0412Z" fill="white"/>
<path d="M1345.49 84.7145C1346.12 84.7162 1346.73 84.5313 1347.25 84.1834C1347.78 83.8354 1348.19 83.34 1348.43 82.7599C1348.67 82.1798 1348.73 81.5412 1348.61 80.925C1348.49 80.3087 1348.18 79.7426 1347.74 79.2984C1347.3 78.8542 1346.73 78.5518 1346.11 78.4297C1345.5 78.3075 1344.86 78.3711 1344.28 78.6123C1343.7 78.8535 1343.2 79.2614 1342.86 79.7845C1342.51 80.3075 1342.32 80.9221 1342.32 81.5504C1342.33 82.3888 1342.66 83.1924 1343.25 83.7853C1343.85 84.3782 1344.65 84.7123 1345.49 84.7145V84.7145Z" fill="white"/>
<path d="M1351.4 89.9943C1351.38 89.925 1351.36 89.8587 1351.32 89.7981C1351.29 89.7394 1351.26 89.6825 1351.22 89.6275L1348.56 86.216C1348.56 86.216 1348.5 86.216 1348.47 86.1393C1348.38 85.9969 1348.25 85.8801 1348.11 85.7996C1347.96 85.7191 1347.79 85.6775 1347.62 85.6787H1343.36C1343.21 85.6801 1343.06 85.7137 1342.93 85.777C1342.8 85.8404 1342.68 85.932 1342.59 86.0455C1342.52 86.0955 1342.45 86.1527 1342.39 86.216L1339.73 89.6275C1339.69 89.6825 1339.66 89.7394 1339.63 89.7981C1339.59 89.8587 1339.57 89.925 1339.55 89.9943C1339.52 90.1234 1339.51 90.2586 1339.53 90.3909C1339.55 90.5232 1339.6 90.6496 1339.67 90.7619L1342.1 94.4292C1342.17 94.5209 1342.25 94.5991 1342.34 94.6595V102.753C1342.34 103.14 1342.49 103.511 1342.77 103.785C1343.04 104.058 1343.41 104.212 1343.8 104.212C1344.19 104.212 1344.56 104.058 1344.83 103.785C1345.1 103.511 1345.26 103.14 1345.26 102.753V95.4441H1345.75V102.753C1345.74 102.955 1345.76 103.157 1345.83 103.348C1345.9 103.539 1346 103.714 1346.14 103.862C1346.28 104.01 1346.44 104.129 1346.63 104.209C1346.81 104.29 1347.01 104.332 1347.21 104.332C1347.42 104.332 1347.62 104.29 1347.8 104.209C1347.99 104.129 1348.15 104.01 1348.29 103.862C1348.43 103.714 1348.53 103.539 1348.6 103.348C1348.67 103.157 1348.69 102.955 1348.68 102.753V94.6169C1348.75 94.5609 1348.81 94.498 1348.86 94.4292L1351.29 90.7619C1351.36 90.6499 1351.41 90.5231 1351.43 90.3904C1351.45 90.2578 1351.44 90.1225 1351.4 89.9943V89.9943ZM1341.68 90.2843L1342.32 89.4314V91.2565L1341.68 90.2843ZM1348.66 91.1883V89.4826L1349.25 90.2416L1348.66 91.1883Z" fill="white"/>
<path d="M1159 88.9323C1159.63 88.9323 1160.24 88.7462 1160.76 88.3976C1161.28 88.049 1161.69 87.5535 1161.93 86.9737C1162.17 86.394 1162.23 85.7561 1162.11 85.1406C1161.99 84.5252 1161.69 83.9599 1161.24 83.5162C1160.8 83.0725 1160.23 82.7703 1159.62 82.6479C1159 82.5255 1158.36 82.5883 1157.78 82.8284C1157.2 83.0686 1156.71 83.4752 1156.36 83.997C1156.01 84.5187 1155.83 85.1321 1155.83 85.7596C1155.83 86.6011 1156.16 87.408 1156.76 88.003C1157.35 88.598 1158.16 88.9323 1159 88.9323Z" fill="white"/>
<path d="M1168.73 93.0985L1164.39 92.8597L1162.88 92.1774L1164.74 92.3906C1164.87 92.4058 1165.01 92.3932 1165.13 92.3536C1165.26 92.3139 1165.38 92.2481 1165.48 92.1603L1168.94 89.5079C1169.15 89.3507 1169.28 89.1195 1169.32 88.8641C1169.35 88.6087 1169.28 88.3498 1169.13 88.1433C1168.97 87.9384 1168.74 87.804 1168.48 87.7689C1168.23 87.7338 1167.97 87.8009 1167.76 87.9557L1164.55 90.4034L1160.64 89.9599C1160.55 89.9599 1160.47 89.9087 1160.39 89.9087H1157.64C1157.17 89.9087 1156.71 90.0983 1156.37 90.4358C1156.03 90.7733 1155.84 91.231 1155.84 91.7083V99.6571V100.834L1154.87 106.062C1154.78 106.439 1154.84 106.837 1155.04 107.169C1155.24 107.501 1155.56 107.739 1155.94 107.832C1156.32 107.925 1156.72 107.864 1157.05 107.663C1157.38 107.463 1157.62 107.138 1157.71 106.762L1158.76 101.491C1158.79 101.27 1158.79 101.046 1158.76 100.826V99.6571H1160L1161.51 101.269C1161.51 101.269 1161.56 101.269 1161.57 101.32L1162.15 105.934C1162.2 106.319 1162.4 106.669 1162.7 106.908C1163.01 107.147 1163.39 107.256 1163.78 107.209C1164.16 107.163 1164.51 106.966 1164.75 106.661C1164.99 106.356 1165.1 105.969 1165.05 105.585L1164.16 100.288C1164.09 99.8763 1163.89 99.498 1163.59 99.2136L1162.18 97.7125V94.0025L1163.58 94.6337C1163.66 94.6539 1163.74 94.6539 1163.82 94.6337C1163.94 94.7132 1164.09 94.7601 1164.24 94.7701L1168.63 95.0089C1168.75 95.017 1168.88 94.9997 1169 94.9581C1169.12 94.9165 1169.23 94.8513 1169.33 94.7664C1169.42 94.6816 1169.5 94.5786 1169.56 94.4636C1169.61 94.3486 1169.64 94.2237 1169.65 94.0964C1169.66 93.8433 1169.56 93.5982 1169.39 93.4122C1169.22 93.2263 1168.98 93.1139 1168.73 93.0985V93.0985Z" fill="white"/>
<path d="M1154.15 90.0645H1152.92C1152.47 90.0645 1152.11 90.4272 1152.11 90.8747V97.4418C1152.11 97.8893 1152.47 98.252 1152.92 98.252H1154.15C1154.59 98.252 1154.96 97.8893 1154.96 97.4418V90.8747C1154.96 90.4272 1154.59 90.0645 1154.15 90.0645Z" fill="white"/>
<path d="M1101.61 88.7936C1100.98 88.7936 1100.37 88.6076 1099.85 88.2589C1099.32 87.9103 1098.92 87.4148 1098.68 86.8351C1098.44 86.2553 1098.37 85.6174 1098.5 85.002C1098.62 84.3865 1098.92 83.8212 1099.36 83.3775C1099.81 82.9338 1100.37 82.6316 1100.99 82.5092C1101.6 82.3868 1102.24 82.4496 1102.82 82.6898C1103.4 82.9299 1103.9 83.3365 1104.25 83.8583C1104.59 84.38 1104.78 84.9934 1104.78 85.6209C1104.78 86.4617 1104.44 87.2674 1103.85 87.8619C1103.25 88.4564 1102.45 88.7914 1101.61 88.7936V88.7936Z" fill="white"/>
<path d="M1091.96 93.496L1096.05 93.0355L1098.73 90.3575C1098.85 90.178 1099.01 90.0307 1099.2 89.9282C1099.4 89.8258 1099.61 89.7711 1099.83 89.769H1103.38C1103.55 89.7717 1103.71 89.8064 1103.87 89.8713C1103.87 89.8713 1103.87 89.8713 1103.93 89.8713L1107.88 91.0739L1111.29 89.6496L1111.53 87.3809C1111.54 87.3025 1111.58 87.2312 1111.64 87.1819C1111.7 87.1327 1111.78 87.1092 1111.86 87.1165H1112.32C1112.4 87.1252 1112.47 87.1649 1112.53 87.2271C1112.58 87.2893 1112.6 87.369 1112.59 87.4492L1112.37 89.5131C1112.59 89.6137 1112.76 89.7898 1112.85 90.0078C1112.95 90.2465 1112.95 90.5149 1112.85 90.7545C1112.76 90.9941 1112.57 91.1855 1112.33 91.2871L1112.18 91.3468L1110.38 108.455C1110.38 108.535 1110.34 108.609 1110.27 108.66C1110.21 108.711 1110.13 108.736 1110.05 108.728L1109.59 108.677C1109.51 108.669 1109.44 108.629 1109.39 108.567C1109.34 108.504 1109.31 108.425 1109.32 108.345L1111.02 91.8159L1108.24 92.9758C1108.1 93.0425 1107.96 93.0773 1107.81 93.0773C1107.66 93.0773 1107.52 93.0425 1107.38 92.9758L1104.72 92.1229V106.792C1104.69 107.161 1104.53 107.505 1104.26 107.757C1103.98 108.008 1103.63 108.148 1103.26 108.148C1102.89 108.148 1102.53 108.008 1102.26 107.757C1101.99 107.505 1101.82 107.161 1101.8 106.792V99.4747H1101.3V101.001C1101.31 101.087 1101.31 101.172 1101.3 101.257C1101.28 101.602 1101.17 101.935 1100.98 102.221L1097.87 106.613C1097.76 106.779 1097.61 106.919 1097.44 107.026C1097.27 107.133 1097.08 107.203 1096.89 107.234C1096.69 107.264 1096.48 107.253 1096.29 107.202C1096.1 107.151 1095.92 107.061 1095.76 106.937C1095.6 106.813 1095.47 106.659 1095.37 106.482C1095.28 106.306 1095.22 106.112 1095.2 105.912C1095.18 105.712 1095.21 105.511 1095.27 105.32C1095.33 105.13 1095.44 104.955 1095.57 104.805L1098.44 101.104C1098.44 101.07 1098.44 101.035 1098.44 101.001V93.3255L1097.23 94.5536C1097.14 94.6268 1097.04 94.6898 1096.94 94.7412V94.7412H1096.86C1096.77 94.7864 1096.67 94.818 1096.58 94.8351L1092.21 95.3212C1091.95 95.3506 1091.7 95.2768 1091.49 95.1161C1091.29 94.9553 1091.16 94.7208 1091.13 94.4641C1091.1 94.2073 1091.18 93.9494 1091.34 93.7471C1091.5 93.5448 1091.73 93.4146 1091.99 93.3852L1091.96 93.496Z" fill="white"/>
<path d="M1306.6 86.4831C1305.98 86.4831 1305.36 86.2968 1304.84 85.9478C1304.32 85.5988 1303.91 85.1028 1303.67 84.5225C1303.43 83.9423 1303.37 83.304 1303.49 82.6883C1303.62 82.0726 1303.92 81.5073 1304.36 81.0639C1304.81 80.6206 1305.37 80.3191 1305.99 80.1976C1306.61 80.0762 1307.24 80.1402 1307.82 80.3817C1308.4 80.6231 1308.9 81.0311 1309.25 81.5539C1309.59 82.0768 1309.78 82.6911 1309.78 83.3189C1309.78 83.7352 1309.69 84.1473 1309.54 84.5318C1309.38 84.9162 1309.14 85.2654 1308.85 85.5593C1308.55 85.8533 1308.2 86.0862 1307.82 86.2447C1307.43 86.4032 1307.02 86.4842 1306.6 86.4831V86.4831Z" fill="white"/>
<path d="M1296.97 91.1873L1301.04 90.7268L1303.72 88.0488C1303.85 87.8691 1304.01 87.7219 1304.2 87.6195C1304.4 87.5171 1304.61 87.4625 1304.83 87.4603H1308.4C1308.56 87.46 1308.72 87.4919 1308.87 87.5541H1308.94L1312.89 88.7481L1316.3 87.3238L1316.54 85.0637C1316.55 84.9837 1316.59 84.9103 1316.65 84.8592C1316.71 84.8082 1316.79 84.7836 1316.87 84.7908L1317.33 84.8419C1317.41 84.8506 1317.49 84.8902 1317.54 84.9525C1317.59 85.0147 1317.61 85.0944 1317.61 85.1746L1317.39 87.2385C1317.56 87.3108 1317.71 87.4332 1317.81 87.5903C1317.92 87.7475 1317.98 87.9322 1317.98 88.1212C1317.98 88.3103 1317.92 88.495 1317.81 88.6522C1317.71 88.8093 1317.56 88.9317 1317.39 89.004L1317.24 89.0637L1315.44 106.181C1315.43 106.259 1315.39 106.331 1315.33 106.38C1315.27 106.429 1315.19 106.453 1315.11 106.445L1314.65 106.394C1314.57 106.385 1314.49 106.346 1314.44 106.284C1314.39 106.221 1314.37 106.142 1314.37 106.061L1316.08 89.5328L1313.3 90.7012C1313.16 90.7608 1313.02 90.7872 1312.87 90.7783C1312.72 90.7694 1312.57 90.7255 1312.45 90.65L1309.79 89.8483V104.509C1309.8 104.711 1309.77 104.913 1309.71 105.104C1309.64 105.295 1309.54 105.47 1309.4 105.618C1309.26 105.766 1309.1 105.884 1308.91 105.965C1308.73 106.046 1308.53 106.088 1308.32 106.088C1308.12 106.088 1307.92 106.046 1307.74 105.965C1307.55 105.884 1307.38 105.766 1307.25 105.618C1307.11 105.47 1307 105.295 1306.94 105.104C1306.87 104.913 1306.85 104.711 1306.86 104.509V97.2257H1306.37V98.7523C1306.37 98.8363 1306.35 98.9191 1306.32 98.9997C1306.31 99.3462 1306.2 99.682 1306.01 99.9719L1302.89 104.356C1302.78 104.507 1302.63 104.633 1302.46 104.728C1302.3 104.822 1302.11 104.883 1301.92 104.906C1301.73 104.93 1301.54 104.915 1301.35 104.864C1301.17 104.813 1300.99 104.725 1300.84 104.607C1300.69 104.489 1300.57 104.342 1300.47 104.175C1300.38 104.008 1300.32 103.824 1300.29 103.634C1300.27 103.443 1300.28 103.25 1300.34 103.065C1300.39 102.88 1300.47 102.707 1300.59 102.556L1303.47 98.8461C1303.47 98.8461 1303.47 98.7864 1303.47 98.7523V91.0765L1302.24 92.3046C1302.16 92.3853 1302.06 92.4491 1301.96 92.4922V92.4922C1301.93 92.4972 1301.9 92.4972 1301.87 92.4922C1301.79 92.5397 1301.69 92.5715 1301.6 92.586L1297.22 93.0807C1297.1 93.0947 1296.97 93.0835 1296.84 93.0478C1296.72 93.0121 1296.61 92.9526 1296.51 92.8726C1296.41 92.7926 1296.32 92.6937 1296.26 92.5816C1296.2 92.4695 1296.16 92.3464 1296.15 92.2193C1296.13 92.0922 1296.15 91.9636 1296.18 91.8408C1296.22 91.7179 1296.28 91.6034 1296.36 91.5036C1296.44 91.4038 1296.54 91.3208 1296.65 91.2592C1296.76 91.1976 1296.88 91.1587 1297.01 91.1447L1296.97 91.1873Z" fill="white"/>
<path d="M1058.12 87.9684C1058.75 87.9701 1059.36 87.7853 1059.89 87.4373C1060.41 87.0893 1060.82 86.5939 1061.06 86.0138C1061.3 85.4337 1061.36 84.7951 1061.24 84.1789C1061.12 83.5626 1060.82 82.9965 1060.37 82.5523C1059.93 82.1081 1059.36 81.8057 1058.75 81.6836C1058.13 81.5614 1057.49 81.625 1056.91 81.8662C1056.33 82.1074 1055.84 82.5154 1055.49 83.0384C1055.14 83.5615 1054.96 84.176 1054.96 84.8043C1054.96 85.6434 1055.29 86.4483 1055.88 87.0417C1056.48 87.6351 1057.28 87.9684 1058.12 87.9684V87.9684Z" fill="white"/>
<path d="M1067.23 95.395L1063.46 93.2202L1061.31 89.5016C1061.24 89.3883 1061.16 89.2895 1061.05 89.2117C1060.97 89.1285 1060.88 89.0622 1060.77 89.0168C1060.67 88.9713 1060.55 88.9477 1060.44 88.9473H1056.45C1056.25 88.9482 1056.05 88.9895 1055.86 89.0686C1055.68 89.1477 1055.51 89.2631 1055.37 89.4078L1052.42 92.3588C1052.28 92.4625 1052.18 92.6007 1052.11 92.7596C1052.07 92.8272 1052.05 92.8988 1052.03 92.9728V93.1008C1052.03 93.1008 1052.03 93.1519 1052.03 93.1775L1051.41 97.3225C1051.39 97.449 1051.39 97.5781 1051.43 97.7023C1051.46 97.8265 1051.51 97.9435 1051.59 98.0464C1051.66 98.1494 1051.76 98.2364 1051.87 98.3024C1051.98 98.3684 1052.1 98.4122 1052.23 98.4312C1052.35 98.4503 1052.48 98.4442 1052.61 98.4133C1052.73 98.3825 1052.85 98.3275 1052.95 98.2515C1053.05 98.1754 1053.14 98.0799 1053.21 97.9702C1053.27 97.8606 1053.32 97.739 1053.33 97.6125L1053.93 93.6125L1055.03 92.5208V100.197C1055.03 100.197 1055.03 100.256 1055.03 100.29L1052.16 104C1051.94 104.309 1051.86 104.687 1051.91 105.057C1051.97 105.428 1052.17 105.762 1052.46 105.993C1052.76 106.223 1053.13 106.331 1053.5 106.295C1053.88 106.26 1054.22 106.082 1054.47 105.8L1057.57 101.416C1057.76 101.126 1057.87 100.791 1057.89 100.444C1057.91 100.363 1057.93 100.281 1057.94 100.197V98.67H1058.44L1059.72 100.538C1059.75 100.566 1059.78 100.591 1059.81 100.615L1060.39 105.297C1060.45 105.666 1060.66 105.996 1060.96 106.219C1061.26 106.442 1061.64 106.541 1062.01 106.497C1062.38 106.452 1062.72 106.266 1062.96 105.978C1063.2 105.69 1063.32 105.321 1063.3 104.947L1062.44 99.6508C1062.45 99.6026 1062.45 99.5541 1062.44 99.5058C1062.42 99.281 1062.34 99.0648 1062.22 98.8747L1061.44 97.7404V93.3481L1061.97 94.2607C1062.04 94.3899 1062.15 94.4982 1062.28 94.5762C1062.36 94.6911 1062.47 94.7871 1062.59 94.8577L1066.39 97.0581C1066.62 97.1882 1066.89 97.223 1067.14 97.1551C1067.39 97.0871 1067.61 96.9218 1067.74 96.6956C1067.87 96.4694 1067.9 96.2008 1067.83 95.9489C1067.76 95.697 1067.6 95.4824 1067.37 95.3524L1067.23 95.395Z" fill="white"/>
<path d="M1180.46 86.7721C1181.09 86.7738 1181.71 86.5892 1182.23 86.2416C1182.75 85.894 1183.16 85.3991 1183.4 84.8195C1183.64 84.2399 1183.71 83.6017 1183.59 82.9857C1183.46 82.3697 1183.16 81.8036 1182.72 81.359C1182.28 80.9145 1181.71 80.6115 1181.1 80.4883C1180.48 80.3652 1179.84 80.4276 1179.26 80.6674C1178.68 80.9073 1178.19 81.314 1177.84 81.8359C1177.49 82.3578 1177.3 82.9716 1177.3 83.5994C1177.3 84.4394 1177.63 85.2451 1178.23 85.8399C1178.82 86.4346 1179.62 86.7699 1180.46 86.7721Z" fill="white"/>
<path d="M1189.59 94.2014L1185.83 92.0266L1183.68 88.2995C1183.61 88.1874 1183.52 88.0891 1183.42 88.0095C1183.34 87.9264 1183.24 87.8601 1183.14 87.8146C1183.03 87.7692 1182.92 87.7456 1182.8 87.7451H1178.82C1178.62 87.7447 1178.42 87.7862 1178.23 87.8669C1178.05 87.9477 1177.88 88.0659 1177.75 88.2142V88.2142L1174.79 91.1651C1174.66 91.2683 1174.55 91.4067 1174.48 91.566C1174.45 91.6371 1174.42 91.7114 1174.4 91.7877V91.9157C1174.4 91.9157 1174.4 91.9668 1174.4 91.9924L1173.78 96.1289C1173.76 96.2582 1173.77 96.3903 1173.8 96.5171C1173.83 96.6439 1173.89 96.7628 1173.97 96.8666C1174.05 96.9703 1174.15 97.0567 1174.26 97.1205C1174.38 97.1843 1174.5 97.2242 1174.63 97.2376C1174.76 97.2555 1174.89 97.2476 1175.02 97.2143C1175.14 97.181 1175.26 97.123 1175.37 97.0436C1175.47 96.9642 1175.55 96.865 1175.62 96.7519C1175.68 96.6388 1175.73 96.514 1175.74 96.3847L1176.34 92.3933L1177.44 91.2931V98.9689C1177.44 98.9689 1177.44 99.0286 1177.44 99.0628L1174.56 102.773C1174.33 103.078 1174.22 103.466 1174.26 103.85C1174.31 104.235 1174.51 104.585 1174.82 104.824C1175.12 105.063 1175.51 105.17 1175.89 105.123C1176.28 105.076 1176.63 104.878 1176.87 104.572L1179.97 100.189C1180.17 99.9004 1180.28 99.564 1180.3 99.2163C1180.3 99.131 1180.35 99.0542 1180.35 98.9689V97.4423H1180.84L1182.13 99.3016C1182.13 99.3016 1182.19 99.3527 1182.21 99.3869L1182.79 104.069C1182.81 104.268 1182.86 104.463 1182.95 104.641C1183.04 104.819 1183.17 104.976 1183.32 105.104C1183.47 105.232 1183.65 105.327 1183.84 105.383C1184.03 105.44 1184.24 105.456 1184.43 105.433C1184.63 105.409 1184.82 105.345 1185 105.245C1185.17 105.144 1185.32 105.01 1185.44 104.849C1185.56 104.689 1185.64 104.506 1185.69 104.312C1185.73 104.118 1185.74 103.916 1185.7 103.719L1184.85 98.4146C1184.85 98.3692 1184.85 98.3235 1184.85 98.2781C1184.83 98.0518 1184.75 97.8347 1184.62 97.647L1183.84 96.5127V92.1118L1184.36 93.0244C1184.45 93.1547 1184.56 93.2652 1184.69 93.3485C1184.77 93.4632 1184.87 93.5592 1184.99 93.63L1188.8 95.8304C1189.02 95.9576 1189.29 95.9913 1189.54 95.9242C1189.79 95.8572 1190 95.6948 1190.13 95.4722C1190.18 95.3536 1190.2 95.2263 1190.2 95.0978C1190.2 94.9692 1190.18 94.842 1190.13 94.7235C1190.08 94.6051 1190 94.4979 1189.91 94.4082C1189.82 94.3186 1189.71 94.2482 1189.59 94.2014V94.2014Z" fill="white"/>
<path d="M307.352 89.7883C307.98 89.7883 308.593 89.6022 309.115 89.2536C309.637 88.9049 310.043 88.4094 310.284 87.8297C310.524 87.25 310.587 86.612 310.464 85.9966C310.342 85.3812 310.04 84.8158 309.596 84.3721C309.152 83.9284 308.587 83.6263 307.971 83.5038C307.356 83.3814 306.718 83.4442 306.138 83.6844C305.559 83.9245 305.063 84.3312 304.714 84.8529C304.366 85.3747 304.18 85.9881 304.18 86.6156C304.18 87.457 304.514 88.264 305.109 88.859C305.704 89.454 306.511 89.7883 307.352 89.7883Z" fill="white"/>
<path d="M313.262 95.0514C313.244 94.9833 313.218 94.9175 313.185 94.8552L313.091 94.6676L310.43 91.2561C310.43 91.2561 310.371 91.2134 310.345 91.1793C310.253 91.037 310.127 90.9201 309.978 90.8396C309.829 90.7591 309.662 90.7175 309.492 90.7188H305.228C305.081 90.719 304.935 90.752 304.803 90.8154C304.67 90.8789 304.553 90.9711 304.46 91.0855C304.389 91.1356 304.324 91.1927 304.264 91.2561L301.603 94.6676C301.561 94.7162 301.527 94.7708 301.501 94.8296C301.464 94.8902 301.438 94.9565 301.424 95.0258C301.389 95.1563 301.381 95.2928 301.402 95.4264C301.422 95.5601 301.471 95.688 301.543 95.8019L303.974 99.4607C304.038 99.5498 304.115 99.6276 304.204 99.691V107.793C304.233 108.162 304.399 108.506 304.67 108.758C304.941 109.009 305.297 109.148 305.667 109.148C306.037 109.148 306.393 109.009 306.664 108.758C306.935 108.506 307.102 108.162 307.13 107.793V100.476H307.616V107.793C307.644 108.162 307.81 108.506 308.082 108.758C308.353 109.009 308.709 109.148 309.079 109.148C309.448 109.148 309.804 109.009 310.076 108.758C310.347 108.506 310.513 108.162 310.541 107.793V99.6484C310.614 99.5969 310.677 99.5335 310.729 99.4607L313.16 95.8019C313.226 95.69 313.269 95.5659 313.287 95.437C313.304 95.3081 313.296 95.177 313.262 95.0514V95.0514ZM303.539 95.3414L304.179 94.4885V96.2795L303.539 95.3414ZM310.516 96.2454V94.5823L311.113 95.3414L310.516 96.2454Z" fill="white"/>
<path d="M350.091 90.068C350.718 90.068 351.332 89.882 351.853 89.5333C352.375 89.1847 352.782 88.6892 353.022 88.1095C353.262 87.5298 353.325 86.8918 353.202 86.2764C353.08 85.6609 352.778 85.0956 352.334 84.6519C351.89 84.2082 351.325 83.906 350.71 83.7836C350.094 83.6612 349.456 83.724 348.877 83.9642C348.297 84.2043 347.801 84.611 347.453 85.1327C347.104 85.6544 346.918 86.2678 346.918 86.8953C346.917 87.3123 346.998 87.7254 347.157 88.1108C347.316 88.4963 347.55 88.8465 347.845 89.1413C348.14 89.4361 348.49 89.6698 348.875 89.8288C349.261 89.9879 349.674 90.0692 350.091 90.068Z" fill="white"/>
<path d="M359.813 94.2341L355.472 93.9953L353.97 93.313L355.821 93.5262C355.954 93.5419 356.089 93.5296 356.217 93.4899C356.345 93.4502 356.463 93.3841 356.563 93.2959L360.034 90.6435C360.239 90.4863 360.373 90.2542 360.407 89.9983C360.44 89.7424 360.371 89.4836 360.214 89.2789C360.056 89.0742 359.824 88.9403 359.568 88.9067C359.312 88.8731 359.054 88.9426 358.849 89.0998L355.642 91.5475L351.727 91.0955C351.642 91.0955 351.565 91.0443 351.48 91.0443H348.734C348.257 91.0443 347.799 91.2339 347.461 91.5714C347.124 91.9089 346.934 92.3666 346.934 92.8439V100.801V101.97L345.962 107.198C345.897 107.564 345.973 107.941 346.176 108.252C346.378 108.564 346.691 108.787 347.052 108.877C347.412 108.967 347.793 108.917 348.118 108.737C348.443 108.556 348.688 108.259 348.802 107.906L349.851 102.626C349.889 102.409 349.889 102.187 349.851 101.97V100.801H351.062L352.58 102.405C352.599 102.426 352.622 102.444 352.649 102.456L353.22 107.07C353.233 107.269 353.286 107.464 353.376 107.641C353.467 107.819 353.592 107.977 353.746 108.105C353.899 108.232 354.077 108.327 354.269 108.384C354.46 108.44 354.661 108.457 354.859 108.433C355.057 108.41 355.248 108.345 355.421 108.245C355.594 108.145 355.744 108.01 355.863 107.85C355.981 107.69 356.066 107.507 356.112 107.313C356.158 107.118 356.163 106.917 356.128 106.72L355.233 101.424C355.165 101.011 354.961 100.633 354.653 100.349L353.246 98.8481V95.1381L354.644 95.7693C354.725 95.7898 354.81 95.7898 354.892 95.7693C355.017 95.8505 355.161 95.8975 355.309 95.9057L359.693 96.1445C359.951 96.1592 360.204 96.0709 360.397 95.8989C360.59 95.727 360.706 95.4855 360.721 95.2277C360.736 94.9698 360.647 94.7167 360.475 94.5239C360.303 94.3312 360.062 94.2147 359.804 94.2L359.813 94.2341Z" fill="white"/>
<path d="M345.238 91.1919H344.009C343.562 91.1919 343.199 91.5546 343.199 92.0021V98.5693C343.199 99.0167 343.562 99.3795 344.009 99.3795H345.238C345.685 99.3795 346.048 99.0167 346.048 98.5693V92.0021C346.048 91.5546 345.685 91.1919 345.238 91.1919Z" fill="white"/>
<path d="M95.0789 89.7883C95.7064 89.7883 96.3198 89.6022 96.8416 89.2536C97.3633 88.9049 97.77 88.4094 98.0101 87.8297C98.2503 87.25 98.3131 86.612 98.1907 85.9966C98.0682 85.3812 97.7661 84.8158 97.3224 84.3721C96.8787 83.9284 96.3133 83.6263 95.6979 83.5038C95.0825 83.3814 94.4445 83.4442 93.8648 83.6844C93.2851 83.9245 92.7896 84.3312 92.4409 84.8529C92.0923 85.3747 91.9062 85.9881 91.9062 86.6156C91.9062 87.457 92.2405 88.264 92.8355 88.859C93.4305 89.454 94.2375 89.7883 95.0789 89.7883V89.7883Z" fill="white"/>
<path d="M100.991 95.0514C100.947 94.9231 100.884 94.8022 100.804 94.6932L98.1683 91.2561C98.1683 91.2561 98.1086 91.2134 98.083 91.1793C97.9911 91.037 97.8647 90.9201 97.7157 90.8396C97.5666 90.7591 97.3996 90.7175 97.2301 90.7188H92.9657C92.8186 90.719 92.6733 90.752 92.5405 90.8154C92.4077 90.8789 92.2908 90.9711 92.1982 91.0855C92.1271 91.1356 92.0614 91.1927 92.002 91.2561L89.341 94.6676C89.2991 94.7162 89.2646 94.7708 89.2387 94.8296C89.2032 94.8917 89.1746 94.9575 89.1534 95.0258C89.1215 95.1571 89.1164 95.2935 89.1384 95.4269C89.1604 95.5602 89.209 95.6878 89.2813 95.8019L91.712 99.4607C91.7733 99.5516 91.8515 99.6298 91.9423 99.691V107.793C91.9705 108.162 92.1368 108.506 92.408 108.758C92.6792 109.009 93.0353 109.148 93.405 109.148C93.7747 109.148 94.1308 109.009 94.402 108.758C94.6732 108.506 94.8395 108.162 94.8677 107.793V100.476H95.3538V107.793C95.382 108.162 95.5483 108.506 95.8195 108.758C96.0907 109.009 96.4468 109.148 96.8165 109.148C97.1862 109.148 97.5423 109.009 97.8135 108.758C98.0847 108.506 98.251 108.162 98.2792 107.793V99.6484C98.3519 99.5969 98.4154 99.5335 98.4668 99.4607L100.897 95.8019C101.025 95.5734 101.059 95.3042 100.991 95.0514V95.0514ZM91.2685 95.3414L91.9082 94.4885V96.2795L91.2685 95.3414ZM98.245 96.2454V94.5823L98.842 95.3414L98.245 96.2454Z" fill="white"/>
<path d="M137.809 90.068C138.437 90.0697 139.051 89.8851 139.574 89.5375C140.097 89.1899 140.505 88.695 140.746 88.1154C140.987 87.5358 141.051 86.8976 140.93 86.2816C140.809 85.6656 140.507 85.0995 140.064 84.6549C139.62 84.2104 139.055 83.9074 138.439 83.7842C137.824 83.6611 137.185 83.7235 136.605 83.9633C136.025 84.2032 135.529 84.6099 135.18 85.1318C134.831 85.6537 134.645 86.2675 134.645 86.8953C134.643 87.3116 134.724 87.724 134.883 88.1088C135.041 88.4937 135.274 88.8435 135.568 89.1383C135.862 89.433 136.211 89.6668 136.596 89.8264C136.98 89.9859 137.392 90.068 137.809 90.068Z" fill="white"/>
<path d="M147.541 94.2385L143.2 93.9997L141.699 93.3174L143.55 93.5306C143.683 93.5463 143.817 93.534 143.945 93.4943C144.073 93.4546 144.191 93.3885 144.292 93.3003L147.754 90.6479C147.864 90.5739 147.958 90.4782 148.029 90.3667C148.101 90.2552 148.149 90.1303 148.171 89.9995C148.192 89.8688 148.187 89.7351 148.155 89.6065C148.123 89.4779 148.065 89.3573 147.984 89.2519C147.904 89.1466 147.803 89.0587 147.688 88.9938C147.572 88.9289 147.445 88.8883 147.313 88.8745C147.181 88.8606 147.048 88.8739 146.921 88.9134C146.795 88.9529 146.678 89.0178 146.577 89.1042L143.371 91.5434L139.456 91.0914C139.372 91.0694 139.286 91.0523 139.2 91.0402H136.454C135.978 91.0424 135.523 91.233 135.187 91.5703C134.851 91.9075 134.663 92.3639 134.663 92.8397V100.797V101.965L133.691 107.194C133.626 107.56 133.702 107.936 133.904 108.248C134.107 108.56 134.42 108.783 134.78 108.873C135.141 108.963 135.522 108.913 135.847 108.732C136.172 108.552 136.416 108.255 136.531 107.902L137.58 102.622C137.618 102.405 137.618 102.183 137.58 101.965V100.797H138.791L140.309 102.4C140.309 102.4 140.351 102.4 140.369 102.452L140.948 107.066C140.971 107.256 141.032 107.44 141.126 107.607C141.22 107.774 141.346 107.921 141.497 108.04C141.648 108.158 141.82 108.246 142.005 108.297C142.19 108.349 142.383 108.364 142.573 108.341C142.764 108.318 142.948 108.258 143.115 108.163C143.282 108.069 143.429 107.943 143.547 107.792C143.666 107.642 143.753 107.469 143.805 107.284C143.856 107.099 143.871 106.906 143.848 106.716L142.995 101.42C142.924 101.008 142.72 100.631 142.415 100.345L141.008 98.844V95.134L142.407 95.7651C142.485 95.7853 142.567 95.7853 142.646 95.7651C142.774 95.8456 142.921 95.8926 143.072 95.9016L147.456 96.1404C147.584 96.1476 147.711 96.1297 147.832 96.0876C147.953 96.0454 148.064 95.9799 148.16 95.8948C148.255 95.8097 148.333 95.7066 148.388 95.5914C148.444 95.4762 148.476 95.3512 148.484 95.2235C148.491 95.0958 148.473 94.968 148.431 94.8472C148.389 94.7265 148.323 94.6152 148.238 94.5198C148.153 94.4244 148.05 94.3466 147.935 94.291C147.819 94.2355 147.694 94.2031 147.567 94.1958L147.541 94.2385Z" fill="white"/>
<path d="M132.956 91.1919H131.728C131.281 91.1919 130.918 91.5546 130.918 92.0021V98.5693C130.918 99.0167 131.281 99.3795 131.728 99.3795H132.956C133.404 99.3795 133.767 99.0167 133.767 98.5693V92.0021C133.767 91.5546 133.404 91.1919 132.956 91.1919Z" fill="white"/>
<path d="M276.419 87.2145C275.792 87.2162 275.177 87.0316 274.655 86.684C274.132 86.3364 273.724 85.8415 273.482 85.2619C273.241 84.6823 273.177 84.0441 273.298 83.4281C273.42 82.8121 273.721 82.246 274.165 81.8014C274.608 81.3569 275.173 81.0538 275.789 80.9307C276.405 80.8076 277.043 80.8699 277.623 81.1098C278.203 81.3497 278.699 81.7564 279.048 82.2783C279.397 82.8002 279.584 83.414 279.584 84.0418C279.584 84.8818 279.251 85.6875 278.657 86.2822C278.064 86.877 277.259 87.2123 276.419 87.2145V87.2145Z" fill="white"/>
<path d="M266.746 91.9148L270.831 91.4542L273.5 88.7847C273.625 88.6045 273.79 88.4564 273.983 88.3526C274.176 88.2488 274.39 88.1923 274.609 88.1877H278.166C278.333 88.1912 278.497 88.2259 278.652 88.29H278.711L282.66 89.4926L286.072 88.0683L286.311 85.8082C286.314 85.7681 286.325 85.7291 286.344 85.6935C286.362 85.6579 286.388 85.6264 286.419 85.6009C286.45 85.5755 286.486 85.5565 286.524 85.5452C286.563 85.5339 286.603 85.5306 286.643 85.5353L287.104 85.5864C287.143 85.5907 287.181 85.6027 287.216 85.6217C287.25 85.6408 287.281 85.6665 287.305 85.6975C287.33 85.7284 287.348 85.7639 287.359 85.802C287.37 85.84 287.373 85.8798 287.368 85.9191L287.155 87.983C287.369 88.0802 287.539 88.2534 287.632 88.4692C287.732 88.7079 287.733 88.9763 287.636 89.2159C287.538 89.4555 287.35 89.6469 287.112 89.7485L286.959 89.8082L285.168 106.917C285.157 106.998 285.116 107.071 285.052 107.122C284.988 107.173 284.908 107.197 284.827 107.19L284.374 107.139C284.294 107.13 284.221 107.09 284.17 107.028C284.119 106.966 284.094 106.886 284.102 106.806L285.807 90.2772L283.018 91.4457C282.882 91.502 282.734 91.5267 282.586 91.5178C282.438 91.509 282.295 91.4668 282.166 91.3945L279.496 90.5416V105.211C279.468 105.58 279.302 105.924 279.03 106.175C278.759 106.427 278.403 106.566 278.033 106.566C277.664 106.566 277.308 106.427 277.036 106.175C276.765 105.924 276.599 105.58 276.571 105.211V97.8934H276.085V99.4286C276.076 99.5125 276.059 99.5954 276.033 99.6759C276.02 100.023 275.911 100.36 275.718 100.648L272.613 105.032C272.375 105.337 272.025 105.535 271.64 105.583C271.255 105.63 270.868 105.522 270.562 105.284C270.257 105.045 270.059 104.695 270.012 104.31C269.964 103.925 270.072 103.538 270.311 103.232L273.185 99.5224C273.181 99.4912 273.181 99.4597 273.185 99.4286V91.7527L271.965 92.9809C271.879 93.0589 271.781 93.1223 271.675 93.1685V93.1685H271.598C271.51 93.2136 271.415 93.2452 271.317 93.2623L266.95 93.757C266.818 93.7812 266.682 93.7779 266.552 93.7475C266.421 93.717 266.297 93.66 266.189 93.58C266.082 93.4999 265.991 93.3986 265.924 93.2822C265.857 93.1658 265.815 93.0368 265.799 92.9033C265.784 92.7698 265.796 92.6346 265.836 92.5061C265.875 92.3776 265.94 92.2585 266.027 92.1562C266.114 92.0539 266.221 91.9706 266.342 91.9115C266.463 91.8523 266.594 91.8186 266.729 91.8124L266.746 91.9148Z" fill="white"/>
<path d="M171.967 90.0895C172.595 90.0912 173.21 89.9063 173.733 89.5584C174.256 89.2104 174.664 88.715 174.905 88.1349C175.146 87.5548 175.21 86.9162 175.088 86.3C174.965 85.6837 174.663 85.1176 174.219 84.6734C173.775 84.2292 173.209 83.9268 172.592 83.8047C171.976 83.6825 171.337 83.7461 170.757 83.9873C170.177 84.2285 169.682 84.6364 169.334 85.1595C168.986 85.6825 168.801 86.2971 168.803 86.9253C168.805 87.7638 169.139 88.5674 169.732 89.1603C170.325 89.7532 171.128 90.0873 171.967 90.0895V90.0895Z" fill="white"/>
<path d="M181.067 97.5219L177.306 95.3471L175.157 91.6286C175.089 91.5148 174.999 91.4161 174.892 91.3386C174.813 91.2555 174.718 91.1892 174.612 91.1437C174.507 91.0983 174.393 91.0747 174.278 91.0742H170.295C170.094 91.0742 169.895 91.115 169.711 91.1942C169.526 91.2734 169.359 91.3892 169.221 91.5348L166.27 94.4857C166.129 94.587 166.019 94.7259 165.954 94.8866C165.92 94.9541 165.894 95.0258 165.877 95.0998V95.0998V95.2277C165.877 95.2277 165.877 95.2789 165.877 95.3045L165.255 99.4494C165.236 99.5786 165.243 99.7102 165.275 99.8366C165.308 99.9629 165.366 100.081 165.446 100.185C165.525 100.288 165.625 100.375 165.739 100.439C165.852 100.503 165.978 100.544 166.108 100.558C166.236 100.576 166.368 100.568 166.494 100.535C166.619 100.502 166.737 100.444 166.841 100.364C166.944 100.285 167.03 100.186 167.095 100.072C167.159 99.9594 167.201 99.8346 167.216 99.7053L167.813 95.7053L168.913 94.6136V102.29C168.913 102.29 168.913 102.349 168.913 102.383L166.039 106.093C165.921 106.245 165.834 106.418 165.783 106.602C165.731 106.787 165.717 106.981 165.74 107.171C165.764 107.361 165.824 107.545 165.919 107.713C166.013 107.88 166.14 108.026 166.291 108.144C166.442 108.263 166.615 108.35 166.8 108.401C166.985 108.452 167.178 108.467 167.369 108.444C167.559 108.42 167.743 108.359 167.91 108.265C168.077 108.171 168.224 108.044 168.342 107.893L171.447 103.509C171.643 103.222 171.755 102.885 171.771 102.537C171.771 102.452 171.822 102.375 171.822 102.29V100.763H172.316L173.604 102.631C173.631 102.659 173.659 102.684 173.69 102.707L174.27 107.39C174.282 107.589 174.335 107.783 174.426 107.961C174.516 108.139 174.642 108.297 174.795 108.424C174.949 108.552 175.127 108.647 175.318 108.704C175.51 108.76 175.71 108.777 175.909 108.753C176.107 108.729 176.298 108.665 176.471 108.565C176.643 108.465 176.793 108.33 176.912 108.17C177.031 108.01 177.116 107.827 177.162 107.632C177.207 107.438 177.213 107.237 177.178 107.04L176.282 101.744C176.286 101.695 176.286 101.647 176.282 101.599C176.26 101.372 176.181 101.155 176.052 100.968L175.276 99.8332V95.5262L175.796 96.4388C175.877 96.5684 175.989 96.6766 176.12 96.7544C176.198 96.8721 176.303 96.9688 176.427 97.0358L180.231 99.2362C180.343 99.3001 180.467 99.3412 180.595 99.3573C180.722 99.3735 180.852 99.3642 180.977 99.3302C181.101 99.2961 181.217 99.2379 181.319 99.1589C181.421 99.0798 181.506 98.9815 181.57 98.8695C181.634 98.7575 181.675 98.634 181.691 98.5061C181.707 98.3782 181.698 98.2484 181.664 98.124C181.63 97.9997 181.572 97.8833 181.493 97.7814C181.414 97.6796 181.315 97.5943 181.203 97.5305L181.067 97.5219Z" fill="white"/>
<path d="M1.84385 90.4084C2.47171 90.41 3.08595 90.2254 3.60882 89.8778C4.13169 89.5302 4.53967 89.0353 4.78111 88.4557C5.02255 87.8761 5.0866 87.238 4.96514 86.622C4.84369 86.0059 4.54219 85.4398 4.09883 84.9953C3.65546 84.5507 3.09016 84.2477 2.47448 84.1246C1.85881 84.0015 1.22045 84.0638 0.64022 84.3037C0.0599894 84.5436 -0.436021 84.9502 -0.78502 85.4721C-1.13402 85.9941 -1.32031 86.6078 -1.32031 87.2357C-1.31807 88.075 -0.98426 88.8794 -0.391592 89.4736C0.201076 90.0679 1.00457 90.4039 1.84385 90.4084V90.4084Z" fill="white"/>
<path d="M10.9441 97.8501L7.17439 95.6752L5.03368 91.9567C4.96637 91.8429 4.87637 91.7442 4.76929 91.6667C4.69002 91.5836 4.59476 91.5173 4.48924 91.4719C4.38372 91.4264 4.27011 91.4028 4.15522 91.4023H0.172299C-0.0286744 91.4023 -0.227554 91.4432 -0.412278 91.5223C-0.597002 91.6015 -0.76372 91.7174 -0.902322 91.8629C-0.902322 91.8629 -0.902322 91.8629 -0.902322 91.8629L-3.88738 94.8394C-4.02854 94.9403 -4.138 95.0794 -4.20295 95.2403C-4.23968 95.3068 -4.26559 95.3788 -4.2797 95.4535V95.4535V95.5814C-4.2797 95.5814 -4.2797 95.6326 -4.2797 95.6582L-4.9023 99.8032C-4.92269 99.9324 -4.91652 100.065 -4.88418 100.191C-4.85184 100.318 -4.79401 100.437 -4.7142 100.541C-4.6344 100.645 -4.5343 100.731 -4.42001 100.795C-4.30571 100.859 -4.17962 100.898 -4.04943 100.912C-3.92046 100.93 -3.78922 100.922 -3.66335 100.889C-3.53748 100.855 -3.4195 100.797 -3.3163 100.718C-3.21309 100.638 -3.12673 100.539 -3.06224 100.426C-2.99775 100.313 -2.95643 100.188 -2.94069 100.059L-2.34368 96.059L-1.24347 94.9674V102.643C-1.24347 102.643 -1.24347 102.711 -1.24347 102.737L-4.17736 106.481C-4.42052 106.787 -4.53242 107.176 -4.48843 107.564C-4.44445 107.952 -4.24818 108.306 -3.94282 108.549C-3.63745 108.793 -3.248 108.904 -2.86013 108.86C-2.47227 108.816 -2.11776 108.62 -1.8746 108.315L1.22986 103.923C1.42644 103.635 1.53869 103.298 1.55396 102.95C1.57678 102.869 1.59388 102.786 1.60513 102.703V101.151H2.09979L3.38763 103.018C3.41389 103.046 3.44241 103.072 3.47292 103.095L4.05288 107.778C4.11927 108.145 4.32323 108.473 4.6232 108.695C4.92316 108.918 5.29656 109.017 5.66733 108.974C6.0381 108.93 6.37834 108.747 6.61874 108.461C6.85913 108.176 6.98159 107.809 6.96118 107.436L6.1083 102.132C6.09805 102.082 6.08378 102.034 6.06566 101.987C6.0431 101.763 5.96385 101.548 5.83538 101.364L5.05927 100.23V95.8288L5.57952 96.7413C5.66278 96.8716 5.77336 96.9822 5.90361 97.0654C5.98463 97.1801 6.08933 97.2761 6.21065 97.3469L10.0145 99.5388C10.1265 99.6026 10.2499 99.6438 10.3779 99.6599C10.5058 99.676 10.6356 99.6668 10.7599 99.6327C10.8843 99.5987 11.0007 99.5404 11.1025 99.4614C11.2044 99.3824 11.2896 99.284 11.3535 99.172C11.4173 99.06 11.4585 98.9365 11.4746 98.8086C11.4907 98.6807 11.4815 98.5509 11.4474 98.4266C11.4134 98.3022 11.3552 98.1858 11.2761 98.084C11.1971 97.9821 11.0987 97.8969 10.9867 97.833L10.9441 97.8501Z" fill="white"/>
<path d="M719.572 71.0546L743.103 76.0439L774.787 75.8136L792.937 73.4512L807.367 72.8542L823.41 67.4384L841.653 63.4299L834.028 61.2295L768.681 68.8457L745.431 69.2465L724.579 65.4342L719.572 71.0546Z" fill="#90866C"/>
<path d="M742.02 51.8038L759.265 55.0106L766.881 54.2089L778.301 55.6162L795.947 53.0064L808.97 50.0043L807.367 48L794.54 51.0021L787.324 51.403L776.902 53.6119L763.674 51.8038L757.252 51.6077L744.024 48.9979L742.02 51.8038Z" fill="#90866C"/>
<path d="M719.573 71.0499L676.673 75.6554L663.889 67.502L689.501 70.4444L717.705 67.502L719.573 71.0499Z" fill="#90866C"/>
<path d="M472.598 78.9527L475.753 70.1339L523.736 71.5838L554.149 61.8525L560.29 69.9719L532.478 77.1446L472.598 78.9527Z" fill="#90866C"/>
<path d="M475.753 70.1315L472.58 78.9502L427.608 80.2466L352.41 71.5473L373.647 65.833C380.905 66.0206 426.661 74.0803 427.591 73.9097C431.31 73.253 475.753 70.1315 475.753 70.1315Z" fill="#90866C"/>
<path d="M560.289 69.9721L565.321 64.2493L596.11 69.7333L633.986 67.9167L660.365 60.0361L663.888 67.5073L629.389 77.1448L589.244 76.0446L560.289 69.9721Z" fill="#90866C"/>
<path d="M856.68 63.8256L865.174 60.2861L896.219 68.1582L911.895 68.6272L923.826 64.4823L929.387 68.6272L909.78 75.6549L895.69 73.9065L856.68 63.8256Z" fill="#90866C"/>
<path d="M952.049 69.8064L958.65 66.9322L970.548 75.8788L984.791 73.107L1003.63 65.6699L1004.06 75.9044L977.84 80.0835L965.26 79.5547L952.049 69.8064Z" fill="#90866C"/>
<path d="M509.186 59.8202L511.087 56.9546L519.94 58.6177H542.55L553.586 60.0761L554.149 61.8501L534.738 60.0335L509.186 59.8202Z" fill="#90866C"/>
<path d="M509.185 59.8227L507.522 58.6201L494.038 61.8525H480.426L468.699 58.6201L465.859 60.0359L477.928 63.1233L497.791 63.0465L509.185 59.8227Z" fill="#90866C"/>
<path d="M420.988 66.2551L417.313 65.0184L405.782 65.8372L393.807 65.0184L387.01 62.2295L382.473 63.4576L403.786 67.8073L420.988 66.2551Z" fill="#90866C"/>
<path d="M465.86 60.0359L463.813 58.6201L450.355 62.4325L436.436 64.1809H423.412L420.99 66.2533H436.7L465.86 60.0359Z" fill="#90866C"/>
<path d="M1003.82 76.0096L1017.5 72.4275L1047.73 73.0245L1060.37 71.4893L1075.7 68.3763L1070.16 64.9648L1058.69 68.1205H1046.88L1025.15 67.6855L1018.25 69.613L1003.63 65.8177L1003.82 76.0096Z" fill="#90866C"/>
<path d="M13.4434 66.3464L33.1447 64.4872C35.8313 64.2398 58.441 70.4573 58.441 70.4573L85.4003 67.0458L95.0549 70.4573L80.8631 73.0927L65.3834 77.2376L45.6649 77.9882L13.4434 66.3464Z" fill="#90866C"/>
<path d="M95.0547 70.5013L102.79 68.8211L134.645 67.9L157.101 64.48L163.378 65.1111L125.519 73.1367L95.0547 70.5013Z" fill="#90866C"/>
<path d="M163.379 65.0131L167.532 63.9556L192.436 65.8319L206.483 66.8468L253.118 66.0366L262.056 68.4758L208.351 71.1368L180.181 69.6528L163.379 65.0131Z" fill="#90866C"/>
<path d="M262.057 68.4769L267.669 65.833L305.519 69.4407L336.188 67.8031L352.41 71.5814L304.18 73.0398L266.628 70.4044L262.057 68.4769Z" fill="#90866C"/>
<path d="M1190.5 19C1195.75 19 1200 14.7467 1200 9.5C1200 4.25329 1195.75 0 1190.5 0C1185.25 0 1181 4.25329 1181 9.5C1181 14.7467 1185.25 19 1190.5 19Z" fill="#C9AC68"/>
<path opacity="0.25" d="M1197.5 14.5L1194.5 17L1234.5 140H1299.5L1197.5 14.5Z" fill="#C9AC68"/>
<path opacity="0.2" d="M1192.23 18L1224.5 140H1159.5L1188.89 18H1192.23Z" fill="#C9AC68"/>
<path opacity="0.3" d="M1188 18.2067L1143 140H1072L1184.67 16L1188 18.2067Z" fill="#C9AC68"/>
<path opacity="0.2" d="M1182 13L991 139.785H1051.54L1183 15.5L1182 13Z" fill="#C9AC68"/>
</svg>
